<svg width="56" height="34" viewBox="0 0 56 34" fill="none" xmlns="http://www.w3.org/2000/svg">
<path d="M0 22V0.759999H3.24V22H0ZM4.32 22V0.759999H7.56V22H4.32ZM8.64 22V0.759999H9.72V22H8.64ZM12.96 22V0.759999H14.04V22H12.96ZM15.12 22V0.759999H16.2V22H15.12ZM9.108 33.628C8.484 33.628 7.932 33.472 7.452 33.16C6.948 32.848 6.552 32.38 6.264 31.756C5.976 31.108 5.832 30.304 5.832 29.344C5.832 28.336 5.988 27.508 6.3 26.86C6.612 26.236 7.008 25.78 7.488 25.492C7.968 25.228 8.484 25.096 9.036 25.096C9.636 25.096 10.152 25.24 10.584 25.528C11.016 25.816 11.34 26.212 11.556 26.716L10.764 27.112L10.656 27.148L10.62 27.076V26.968C10.62 26.872 10.56 26.74 10.44 26.572C10.248 26.308 10.032 26.116 9.792 25.996C9.552 25.876 9.3 25.816 9.036 25.816C8.316 25.816 7.752 26.128 7.344 26.752C6.96 27.352 6.768 28.204 6.768 29.308C6.768 29.98 6.864 30.592 7.056 31.144C7.272 31.672 7.548 32.08 7.884 32.368C8.244 32.656 8.64 32.8 9.072 32.8C9.408 32.8 9.72 32.716 10.008 32.548C10.32 32.356 10.572 32.104 10.764 31.792L11.448 32.26C11.16 32.716 10.836 33.052 10.476 33.268C10.092 33.508 9.636 33.628 9.108 33.628ZM39.0938 22V0.759999H42.3338V22H39.0938ZM43.4138 22V0.759999H44.4938V22H43.4138ZM45.5738 22V0.759999H46.6538V22H45.5738ZM49.8938 22V0.759999H53.1338V22H49.8938ZM54.2138 22V0.759999H55.2938V22H54.2138ZM45.0698 25.132H46.1498V25.24C46.1018 25.288 46.0658 25.348 46.0418 25.42C46.0418 25.468 46.0418 25.576 46.0418 25.744V28.696H49.2818V25.132H50.3978V25.24C50.3498 25.288 50.3138 25.348 50.2898 25.42C50.2898 25.468 50.2898 25.576 50.2898 25.744V33.484H49.2818V29.524H46.0418V33.484H45.0698V25.132Z" fill="black"/>
<path d="M37.1329 12.316C37.1329 13.924 36.9169 15.352 36.4849 16.6C36.0769 17.824 35.4769 18.868 34.6849 19.732C33.9169 20.596 32.9689 21.256 31.8409 21.712C30.7369 22.144 29.5009 22.36 28.1329 22.36C26.8609 22.36 25.6849 22.144 24.6049 21.712C23.5249 21.256 22.5889 20.596 21.7969 19.732C21.0049 18.868 20.3809 17.824 19.9249 16.6C19.4929 15.352 19.2769 13.924 19.2769 12.316C19.2769 10.18 19.6369 8.38 20.3569 6.916C21.0769 5.428 22.1089 4.3 23.4529 3.532C24.7969 2.74 26.3929 2.344 28.2409 2.344C29.9929 2.344 31.5289 2.74 32.8489 3.532C34.1929 4.3 35.2369 5.428 35.9809 6.916C36.7489 8.38 37.1329 10.18 37.1329 12.316ZM22.5529 12.316C22.5529 13.828 22.7449 15.148 23.1289 16.276C23.5369 17.38 24.1609 18.232 25.0009 18.832C25.8409 19.432 26.9089 19.732 28.2049 19.732C29.5009 19.732 30.5689 19.432 31.4089 18.832C32.2489 18.232 32.8609 17.38 33.2449 16.276C33.6529 15.148 33.8569 13.828 33.8569 12.316C33.8569 10.78 33.6529 9.472 33.2449 8.392C32.8369 7.312 32.2129 6.484 31.3729 5.908C30.5569 5.308 29.4889 5.008 28.1689 5.008C26.2009 5.008 24.7729 5.656 23.8849 6.952C22.9969 8.248 22.5529 10.036 22.5529 12.316Z" fill="#1900FF"/>
</svg>
